<svg xmlns="http://www.w3.org/2000/svg" version="1.1" xmlns:xlink="http://www.w3.org/1999/xlink" xmlns:svgjs="http://svgjs.dev/svgjs" width="1000" height="1000" viewBox="0 0 1000 1000"><rect width="1000" height="1000" fill="#ffffff"></rect><g transform="matrix(0.7,0,0,0.7,150.05706193867172,112.86372562014446)"><svg viewBox="0 0 223 247" data-background-color="#ffffff" preserveAspectRatio="xMidYMid meet" height="1107" width="1000" xmlns="http://www.w3.org/2000/svg" xmlns:xlink="http://www.w3.org/1999/xlink"><g id="tight-bounds" transform="matrix(1,0,0,1,-0.01817822416666104,-0.10000029445822634)"><svg viewBox="0 0 223.03635217406836 247.2" height="247.2" width="223.03635217406836"><g><svg viewBox="0 0 395.52 438.370440723912" height="247.2" width="223.03635217406836"><g transform="matrix(1,0,0,1,0,251.61579189775836)"><svg viewBox="0 0 395.52 186.75464882615364" height="186.75464882615364" width="395.52"><g id="textblocktransform"><svg viewBox="0 0 395.52 186.75464882615364" height="186.75464882615364" width="395.52" id="textblock"><g><svg viewBox="0 0 395.52 132.67841017488075" height="132.67841017488075" width="395.52"><g transform="matrix(1,0,0,1,0,0)"><svg width="395.52" viewBox="1.4600000381469727 -35.54999923706055 107.48999786376953 36.05999755859375" height="132.67841017488075" data-palette-color="#5c821a"><path d="M12.28 0.51L12.28 0.51Q9.33 0.51 6.92-0.66 4.52-1.83 3.06-4.2 1.61-6.57 1.46-10.13L1.46-10.13 1.51-10.28 6.13-10.28Q6.23-6.69 7.78-5 9.33-3.32 12.21-3.32L12.21-3.32Q14.23-3.32 15.53-4.19 16.82-5.05 17.44-6.58 18.07-8.11 18.07-10.08L18.07-10.08 18.07-31.76 13.33-32.4 13.33-35.55 26.86-35.55 26.86-32.45 22.88-31.76 22.88-10.08Q22.88-6.91 21.67-4.52 20.46-2.12 18.1-0.81 15.75 0.51 12.28 0.51ZM52.05 0L39.28 0 39.28-3.08 43.26-3.76 43.26-31.91 35.2-31.91 34.49-26.98 30.88-26.98 30.88-35.55 60.42-35.55 60.42-26.98 56.86-26.98 56.13-31.91 48.07-31.91 48.07-3.76 52.05-3.08 52.05 0ZM77.92 0L65.16 0 65.16-3.08 69.14-3.76 69.14-31.76 65.16-32.45 65.16-35.55 69.14-35.55 75.56-35.55 87.01-8.57 87.15-8.57 98.24-35.55 108.95-35.55 108.95-32.45 104.98-31.76 104.98-3.76 108.95-3.08 108.95 0 96.19 0 96.19-3.08 100.39-3.76 100.39-14.06 100.39-28.98 100.26-29 88.72-1.27 85.52-1.27 73.58-28.96 73.46-28.93 73.63-14.06 73.63-3.76 77.92-3.08 77.92 0Z" opacity="1" transform="matrix(1,0,0,1,0,0)" fill="#000000" class="undefined-text-0" data-fill-palette-color="primary" id="text-0"></path></svg></g></svg></g><g transform="matrix(1,0,0,1,75.54432000000001,164.0005985353259)"><svg viewBox="0 0 244.43135999999996 22.754050290827738" height="22.754050290827738" width="244.43135999999996"><g transform="matrix(1,0,0,1,0,0)"><svg width="244.43135999999996" viewBox="1.6400001049041748 -36.060001373291016 392.8399963378906 36.56999969482422" height="22.754050290827738" data-palette-color="#c6d166"><path d="M23.97 0L10.06 0 10.06-3.76 13.94-4.49 13.94-30.83 6.79-30.83 6.25-26.29 1.64-26.29 1.64-35.55 32.42-35.55 32.42-26.29 27.78-26.29 27.25-30.83 20.09-30.83 20.09-4.49 23.97-3.76 23.97 0ZM49.58 0L35.69 0 35.69-3.76 39.57-4.49 39.57-31.03 35.69-31.76 35.69-35.55 49.58-35.55 49.58-31.76 45.73-31.03 45.73-4.49 49.58-3.76 49.58 0ZM66.87 0L52.97 0 52.97-3.76 56.83-4.49 56.83-31.03 52.97-31.76 52.97-35.55 56.83-35.55 65.64-35.55 76.07-9.84 76.22-9.84 86.32-35.55 99.14-35.55 99.14-31.76 95.26-31.03 95.26-4.49 99.14-3.76 99.14 0 85.25 0 85.25-3.76 89.33-4.49 89.33-12.77 89.37-28.32 89.25-28.34 78.24-0.81 73.77-0.81 62.45-28.2 62.32-28.17 62.64-13.18 62.64-4.49 66.87-3.76 66.87 0ZM130.1 0L102.41 0 102.41-3.76 106.29-4.49 106.29-31.03 102.41-31.76 102.41-35.55 129.48-35.55 129.48-26.39 124.7-26.39 124.28-30.81 112.44-30.81 112.44-20.75 124.92-20.75 124.92-15.99 112.44-15.99 112.44-4.69 124.94-4.69 125.36-9.2 130.1-9.2 130.1 0ZM160.53 0L146.64 0 146.64-3.76 150.52-4.49 150.52-31.03 146.64-31.76 146.64-35.55 160.53-35.55 160.53-31.76 156.68-31.03 156.68-4.49 160.53-3.76 160.53 0ZM177.57 0.51L177.57 0.51Q173.94 0.51 170.81-0.39 167.69-1.29 164.73-3.39L164.73-3.39 164.73-11.57 169.49-11.57 170.27-6.27Q171.57-5.35 173.46-4.79 175.35-4.22 177.57-4.22L177.57-4.22Q179.75-4.22 181.22-4.85 182.7-5.47 183.48-6.59 184.26-7.71 184.26-9.25L184.26-9.25Q184.26-10.67 183.58-11.77 182.9-12.87 181.31-13.73 179.72-14.6 177.01-15.33L177.01-15.33Q173.03-16.41 170.36-17.87 167.69-19.34 166.33-21.39 164.98-23.44 164.98-26.22L164.98-26.22Q164.98-29.08 166.53-31.27 168.08-33.47 170.83-34.74 173.59-36.01 177.21-36.04L177.21-36.04Q181.16-36.08 184.2-35.01 187.24-33.94 189.34-32.2L189.34-32.2 189.34-24.56 184.68-24.56 183.8-29.54Q182.8-30.25 181.2-30.75 179.6-31.25 177.43-31.25L177.43-31.25Q175.57-31.25 174.15-30.64 172.74-30.03 171.93-28.92 171.13-27.81 171.13-26.27L171.13-26.27Q171.13-24.93 171.84-23.93 172.54-22.92 174.2-22.11 175.86-21.29 178.7-20.46L178.7-20.46Q184.48-18.92 187.46-16.21 190.44-13.5 190.44-9.3L190.44-9.3Q190.44-6.35 188.84-4.14 187.24-1.93 184.35-0.71 181.45 0.51 177.57 0.51ZM220.17 0L206.28 0 206.28-3.76 210.14-4.49 210.14-31.03 206.28-31.76 206.28-35.55 210.14-35.55 218.95-35.55 229.37-9.84 229.52-9.84 239.63-35.55 252.45-35.55 252.45-31.76 248.56-31.03 248.56-4.49 252.45-3.76 252.45 0 238.55 0 238.55-3.76 242.63-4.49 242.63-12.77 242.68-28.32 242.56-28.34 231.55-0.81 227.08-0.81 215.75-28.2 215.63-28.17 215.95-13.18 215.95-4.49 220.17-3.76 220.17 0ZM271.27 0.51L271.27 0.51Q267.73 0.51 264.87-0.82 262.01-2.15 259.98-4.57 257.94-6.98 256.84-10.28 255.74-13.57 255.74-17.5L255.74-17.5 255.74-18.04Q255.74-21.95 256.84-25.24 257.94-28.54 259.98-30.97 262.01-33.4 264.87-34.73 267.73-36.06 271.24-36.06L271.24-36.06Q274.88-36.06 277.76-34.73 280.64-33.4 282.67-30.97 284.69-28.54 285.77-25.24 286.84-21.95 286.84-18.04L286.84-18.04 286.84-17.5Q286.84-13.57 285.77-10.28 284.69-6.98 282.67-4.57 280.64-2.15 277.76-0.82 274.88 0.51 271.27 0.51ZM271.27-4.37L271.27-4.37Q274.49-4.37 276.58-6.02 278.66-7.67 279.68-10.62 280.69-13.57 280.69-17.5L280.69-17.5 280.69-18.09Q280.69-21.97 279.67-24.9 278.64-27.83 276.55-29.49 274.46-31.15 271.24-31.15L271.24-31.15Q268.17-31.15 266.09-29.49 264.02-27.83 262.97-24.9 261.92-21.97 261.92-18.09L261.92-18.09 261.92-17.5Q261.92-13.6 262.97-10.63 264.02-7.67 266.1-6.02 268.19-4.37 271.27-4.37ZM303.98 0L290.06 0 290.06-3.76 293.94-4.49 293.94-31.03 290.06-31.76 290.06-35.55 293.94-35.55 300.17-35.55 316.48-9.59 316.63-9.64 316.63-31.03 312.13-31.76 312.13-35.55 322.17-35.55 326.05-35.55 326.05-31.76 322.17-31.03 322.17 0 316.33 0 299.63-25.85 299.49-25.83 299.49-4.49 303.98-3.76 303.98 0ZM356.76 0L329.07 0 329.07-3.76 332.96-4.49 332.96-31.03 329.07-31.76 329.07-35.55 356.15-35.55 356.15-26.39 351.36-26.39 350.95-30.81 339.11-30.81 339.11-20.75 351.58-20.75 351.58-15.99 339.11-15.99 339.11-4.69 351.61-4.69 352.02-9.2 356.76-9.2 356.76 0ZM384.47 0L370.6 0 370.6-3.76 374.46-4.49 374.46-12.5 363.76-31.27 360.54-31.76 360.54-35.55 373.92-35.55 373.92-31.76 370.53-31.32 377.12-18.87 377.66-17.8 377.75-17.85 378.27-18.85 385.39-31.32 381.37-31.76 381.37-35.55 394.48-35.55 394.48-31.76 391.13-31.27 380.59-12.99 380.59-4.49 384.47-3.76 384.47 0Z" opacity="1" transform="matrix(1,0,0,1,0,0)" fill="#000000" class="undefined-text-1" data-fill-palette-color="secondary" id="text-1"></path></svg></g></svg></g></svg></g></svg></g><g transform="matrix(1,0,0,1,75.54432000000001,0)"><svg viewBox="0 0 244.43135999999996 220.2936035373132" height="220.2936035373132" width="244.43135999999996"><g><svg xmlns="http://www.w3.org/2000/svg" xmlns:xlink="http://www.w3.org/1999/xlink" version="1.1" x="0" y="0" viewBox="5.003247261047363 8.907999992370605 90.31575012207031 81.39701080322266" enable-background="new 0 0 100 100" xml:space="preserve" height="220.2936035373132" width="244.43135999999996" class="icon-icon-0" data-fill-palette-color="accent" id="icon-0"><path d="M54.621 8.908c-1.974 0-3.575 1.602-3.575 3.578 0 1.976 1.602 3.578 3.575 3.578 18.493 0 33.54 15.047 33.54 33.543 0 18.495-15.047 33.542-33.54 33.542-16.971 0-31.03-12.676-33.23-29.056l2.504 2.505c0.699 0.699 1.614 1.047 2.53 1.047 0.916 0 1.831-0.348 2.53-1.047 1.397-1.398 1.397-3.663 0-5.061l-8.922-8.922c-1.397-1.397-3.663-1.397-5.06 0l-8.922 8.922c-1.397 1.397-1.397 3.662 0 5.061 1.397 1.396 3.663 1.396 5.061 0l3.012-3.012c2.007 20.579 19.403 36.719 40.498 36.719 22.439 0 40.697-18.258 40.697-40.698C95.318 27.166 77.061 8.908 54.621 8.908z" fill="#000000" data-fill-palette-color="accent"></path><path d="M41.141 69.414c-0.971 0-1.941-0.369-2.682-1.11-1.481-1.481-1.482-3.883-0.001-5.364l11.856-11.86V27.108c0-2.095 1.698-3.793 3.791-3.793 2.094 0 3.79 1.698 3.79 3.793v25.541c0 1.006-0.398 1.97-1.109 2.682L43.823 68.303C43.083 69.043 42.112 69.414 41.141 69.414z" fill="#000000" data-fill-palette-color="accent"></path><path d="M81.644 51.94h-3.926c-1.381 0-2.5-1.119-2.5-2.5s1.119-2.5 2.5-2.5h3.926c1.381 0 2.5 1.119 2.5 2.5S83.024 51.94 81.644 51.94z" fill="#000000" data-fill-palette-color="accent"></path><path d="M72.316 71.539c-0.64 0-1.279-0.244-1.768-0.732l-2.776-2.776c-0.977-0.977-0.977-2.559 0-3.535s2.559-0.977 3.535 0l2.776 2.776c0.977 0.977 0.977 2.559 0 3.535C73.596 71.295 72.956 71.539 72.316 71.539z" fill="#000000" data-fill-palette-color="accent"></path><path d="M52.719 79.657c-1.381 0-2.5-1.119-2.5-2.5V73.23c0-1.381 1.119-2.5 2.5-2.5s2.5 1.119 2.5 2.5v3.927C55.219 78.538 54.1 79.657 52.719 79.657z" fill="#000000" data-fill-palette-color="accent"></path><path d="M69.541 35.117c-0.64 0-1.279-0.244-1.768-0.732-0.977-0.977-0.977-2.559 0-3.536l2.775-2.776c0.975-0.977 2.559-0.976 3.535 0 0.977 0.977 0.977 2.559 0 3.536l-2.775 2.776C70.821 34.873 70.181 35.117 69.541 35.117z" fill="#000000" data-fill-palette-color="accent"></path></svg></g></svg></g><g></g></svg></g><defs></defs></svg><rect width="223.03635217406836" height="247.2" fill="none" stroke="none" visibility="hidden"></rect></g></svg></g></svg>